<?xml version="1.0" encoding="UTF-8" standalone="no"?>
<svg
   xmlns:dc="http://purl.org/dc/elements/1.1/"
   xmlns:cc="http://creativecommons.org/ns#"
   xmlns:rdf="http://www.w3.org/1999/02/22-rdf-syntax-ns#"
   xmlns:svg="http://www.w3.org/2000/svg"
   xmlns="http://www.w3.org/2000/svg"
   xmlns:sodipodi="http://sodipodi.sourceforge.net/DTD/sodipodi-0.dtd"
   xmlns:inkscape="http://www.inkscape.org/namespaces/inkscape"
   version="1.1"
   x="0px"
   y="0px"
   viewBox="0 0 100 100"
   xml:space="preserve"
   id="svg3052"
   inkscape:version="0.48.4 r9939"
   width="100%"
   height="100%"
   sodipodi:docname="favicon.svg"><metadata
     id="metadata3066"><rdf:RDF><cc:Work
         rdf:about=""><dc:format>image/svg+xml</dc:format><dc:type
           rdf:resource="http://purl.org/dc/dcmitype/StillImage" /></cc:Work></rdf:RDF></metadata><defs
     id="defs3064" /><sodipodi:namedview
     pagecolor="#ffffff"
     bordercolor="#666666"
     borderopacity="1"
     objecttolerance="10"
     gridtolerance="10"
     guidetolerance="10"
     inkscape:pageopacity="0"
     inkscape:pageshadow="2"
     inkscape:window-width="1920"
     inkscape:window-height="1025"
     id="namedview3062"
     showgrid="false"
     inkscape:zoom="6.8"
     inkscape:cx="50"
     inkscape:cy="56.617647"
     inkscape:window-x="-3"
     inkscape:window-y="32"
     inkscape:window-maximized="1"
     inkscape:current-layer="svg3052" /><style
     type="text/css"
     id="style3054">
	.st0{fill:none;stroke:#000000;stroke-width:2;stroke-linecap:round;stroke-linejoin:round;stroke-miterlimit:10;}
</style><path
     d="M 89.135,28.01 H 51.438 V 10 c 0,-0.553 -0.447,-1 -1,-1 h -20 c -0.553,0 -1,0.447 -1,1 V 28.01 H 11.115 c -0.553,0 -1,0.447 -1,1 v 20 c 0,0.553 0.447,1 1,1 h 18.322 v 38.01 c 0,0.553 0.447,1 1,1 h 20 c 0.553,0 1,-0.447 1,-1 V 50.01 h 37.697 c 0.553,0 1,-0.447 1,-1 v -20 c 0.001,-0.553 -0.446,-1 -0.999,-1 z M 31.438,11 h 18 v 17.01 h -18 V 11 z m 18,19.01 v 18 h -18 v -18 h 18 z m -37.323,18 v -18 h 17.322 v 18 H 12.115 z M 31.438,87.02 V 69.755 h 18 V 87.02 h -18 z m 18,-19.265 h -18 V 50.01 h 18 v 17.745 z m 2,-37.745 h 17.229 v 18 H 51.438 v -18 z m 36.697,18 H 70.667 v -18 h 17.468 v 18 z"
     id="path3056"
     inkscape:connector-curvature="0" /></svg>