<?xml version="1.0" standalone="no"?>
<!DOCTYPE svg PUBLIC "-//W3C//DTD SVG 20010904//EN"
 "http://www.w3.org/TR/2001/REC-SVG-20010904/DTD/svg10.dtd">
<svg version="1.0" xmlns="http://www.w3.org/2000/svg"
 width="700.000000pt" height="700.000000pt" viewBox="0 0 700.000000 700.000000"
 preserveAspectRatio="xMidYMid meet">
<metadata>
Created by potrace 1.11, written by Peter Selinger 2001-2013
</metadata>
<g transform="translate(0.000000,700.000000) scale(0.100000,-0.100000)"
fill="#000000" stroke="none">
<path d="M2085 6346 l-25 -25 0 -641 0 -640 -649 0 -650 0 -26 -22 -26 -23 0
-615 c0 -338 1 -665 1 -727 0 -102 2 -114 22 -133 21 -20 31 -20 675 -20 l653
0 0 -1343 0 -1344 23 -21 23 -22 727 0 726 0 21 22 c15 16 20 35 20 77 0 31 1
635 1 1343 l0 1288 1334 0 1334 0 20 26 c21 26 21 33 21 746 l0 719 -25 24
-24 25 -1330 0 -1330 0 0 641 0 642 -22 23 -22 23 -724 1 -724 0 -24 -24z
m1375 -711 l0 -595 -630 0 -630 0 0 595 0 595 630 0 630 0 0 -595z m-1400
-1365 l0 -630 -605 0 -605 0 0 630 0 630 605 0 605 0 0 -630z m1400 0 l0 -630
-630 0 -630 0 0 630 0 630 630 0 630 0 0 -630z m1346 0 l0 -630 -603 0 -602 0
0 622 c0 341 2 625 5 630 3 4 274 8 603 8 l597 0 0 -630z m1364 0 l0 -630
-612 0 -613 0 2 617 c0 340 2 624 2 631 1 9 130 12 611 12 l610 0 0 -630z
m-2710 -1390 c0 -584 -1 -620 -17 -621 -24 -1 -1203 -1 -1225 0 -17 1 -18 37
-18 621 l0 620 630 0 630 0 0 -620z m-2 -1367 l2 -603 -630 0 -630 0 0 603 0
604 628 -1 627 -1 3 -602z"/>
</g>
</svg>
